STARTFONT 2.1
FONT matty.math1
SIZE 22 72 72
FONTBOUNDINGBOX 20 22 0 -4
STARTPROPERTIES 4
FONT_DESCENT 4
FONT_ASCENT 18
DEFAULT_CHAR 0
COPYRIGHT "Copyright (c) 1993 James Matthew Farrow - All rights reserved."
ENDPROPERTIES
CHARS 128
STARTCHAR ch-0
ENCODING 0
SWIDTH 454 0
DWIDTH 10 0
BBX 10 22 0 -4
BITMAP
000000
000000
000000
000000
000000
000000
000000
000000
618000
618000
618000
3f8000
310000
330000
1a0000
1a0000
0c0000
0c0000
000000
000000
000000
000000
ENDCHAR
STARTCHAR ch-1
ENCODING 1
SWIDTH 272 0
DWIDTH 6 0
BBX 6 22 0 -4
BITMAP
000000
000000
000000
000000
000000
000000
000000
000000
700000
d80000
d80000
c00000
c00000
c00000
c00000
d80000
d80000
700000
000000
000000
000000
000000
ENDCHAR
STARTCHAR ch-2
ENCODING 2
SWIDTH 363 0
DWIDTH 8 0
BBX 8 22 0 -4
BITMAP
00000d
000000
000000
000000
000003
000000
000000
380008
6c0009
cc0000
060000
3e0006
660000
c60000
c60000
c60000
6c0000
380000
000000
000000
000000
000000
ENDCHAR
STARTCHAR ch-3
ENCODING 3
SWIDTH 318 0
DWIDTH 7 0
BBX 7 22 0 -4
BITMAP
000000
000000
000000
000000
000003
000000
000000
000008
fc0000
0c0000
0c000c
0c0006
0c000b
7c0000
0c000e
0c0000
0c0000
fc0000
000006
000000
000000
000000
ENDCHAR
STARTCHAR ch-4
ENCODING 4
SWIDTH 318 0
DWIDTH 7 0
BBX 7 22 0 -4
BITMAP
00000d
000000
000000
000000
000003
000000
040000
040008
fc0008
0c0000
0c000c
0c0000
1c0000
7c0000
1c000c
2c0000
2c0000
fc0000
40000c
400000
000000
000000
ENDCHAR
STARTCHAR ch-5
ENCODING 5
SWIDTH 636 0
DWIDTH 14 0
BBX 14 22 0 -4
BITMAP
000000
000000
000000
000000
004003
0fc000
3fe000
78f008
61b000
c11800
c3180c
c21806
c6180b
c41800
6c100c
687000
3fe000
1f8000
10000c
200000
000000
000000
ENDCHAR
STARTCHAR ch-6
ENCODING 6
SWIDTH 545 0
DWIDTH 12 0
BBX 12 22 0 -4
BITMAP
000000
000000
000000
000000
000003
000000
00000f
000008
040000
0e0000
0e0001
130006
13000b
218008
218002
60c000
7fc000
ffe008
00000c
000000
000000
000000
ENDCHAR
STARTCHAR ch-7
ENCODING 7
SWIDTH 500 0
DWIDTH 11 0
BBX 11 22 0 -4
BITMAP
000000
000000
000000
000000
000003
000000
000000
000008
ffe000
7fc000
604004
308006
30800b
190000
190003
0a0000
0e0000
040000
000001
000000
000000
000000
ENDCHAR
STARTCHAR ch-8
ENCODING 8
SWIDTH 409 0
DWIDTH 9 0
BBX 9 22 0 -4
BITMAP
000000
000000
000000
000000
000003
000000
000000
1f0008
3f0000
600000
c0000f
ff0006
ff000b
c00000
c00000
600000
3f0000
1f0000
000009
000000
000000
000000
ENDCHAR
STARTCHAR ch-9
ENCODING 9
SWIDTH 409 0
DWIDTH 9 0
BBX 9 22 0 -4
BITMAP
000000
000000
000000
000000
010003
010000
020000
1f0008
3f0000
640000
c8000f
ff0006
ff000b
d00000
e0000f
600000
7f0000
5f0000
800000
800000
000000
000000
ENDCHAR
STARTCHAR ch-10
ENCODING 10
SWIDTH 272 0
DWIDTH 6 0
BBX 6 22 0 -4
BITMAP
000000
000000
000000
000000
000003
000000
000001
000008
000000
380000
78000f
c00006
f0000b
c00000
78000f
380000
000000
000000
000000
000000
000000
000000
ENDCHAR
STARTCHAR ch-11
ENCODING 11
SWIDTH 409 0
DWIDTH 9 0
BBX 9 22 0 -4
BITMAP
00000d
000000
000000
000000
000003
000000
000000
f80008
fc0008
060000
030000
ff0000
ff0000
030000
030000
020000
fc0000
f80000
000008
000000
000000
000000
ENDCHAR
STARTCHAR ch-12
ENCODING 12
SWIDTH 409 0
DWIDTH 9 0
BBX 9 22 0 -4
BITMAP
000000
000000
000000
000000
010003
010000
020000
fe0008
fe0000
060000
07000c
ff0006
ff000b
130000
13000f
220000
fc0000
f80000
400003
800000
800000
000000
ENDCHAR
STARTCHAR ch-13
ENCODING 13
SWIDTH 272 0
DWIDTH 6 0
BBX 6 22 0 -4
BITMAP
00000d
000000
000000
000000
000003
000000
000001
000008
000008
e00000
f0000e
180000
780000
180000
f0000f
e00000
000000
000000
000003
000000
000000
000000
ENDCHAR
STARTCHAR ch-14
ENCODING 14
SWIDTH 545 0
DWIDTH 12 0
BBX 12 22 0 -4
BITMAP
000000
000000
000000
000000
000003
000000
ffe000
ffe008
ffe000
ffe000
ffe000
ffe006
ffe00b
ffe000
ffe008
ffe000
ffe000
ffe000
ffe000
000000
000000
000000
ENDCHAR
STARTCHAR ch-15
ENCODING 15
SWIDTH 545 0
DWIDTH 12 0
BBX 12 22 0 -4
BITMAP
000000
000000
000000
000000
000003
ffe000
60c000
60c008
60c000
60c000
60c00f
60c006
60c00b
60c000
60c00f
60c000
60c000
e0e000
00000f
000000
000000
000000
ENDCHAR
STARTCHAR ch-16
ENCODING 16
SWIDTH 545 0
DWIDTH 12 0
BBX 12 22 0 -4
BITMAP
000000
000000
000000
000000
000003
e0e000
60c00f
60c008
60c000
60c000
60c000
60c006
60c00b
60c000
60c000
60c000
60c000
ffe000
000000
000000
000000
000000
ENDCHAR
STARTCHAR ch-17
ENCODING 17
SWIDTH 545 0
DWIDTH 12 0
BBX 12 22 0 -4
BITMAP
00000d
000000
000000
000000
000003
ffe000
702000
380008
1c0008
0e0000
070000
038000
070000
0e0000
1c0000
380000
702000
ffe000
000000
000000
000000
000000
ENDCHAR
STARTCHAR ch-18
ENCODING 18
SWIDTH 454 0
DWIDTH 10 0
BBX 10 22 0 -4
BITMAP
00000d
000000
000000
000000
000003
000000
00000f
000008
000008
000000
00000c
000000
ff8000
ff8000
000003
000000
000000
000000
00000c
000000
000000
000000
ENDCHAR
STARTCHAR ch-19
ENCODING 19
SWIDTH 409 0
DWIDTH 9 0
BBX 9 22 0 -4
BITMAP
00000d
000000
000000
000000
000003
000000
000000
000008
ff0008
ff0000
180000
180000
ff0000
ff0000
180000
180000
180000
000000
000000
000000
000000
000000
ENDCHAR
STARTCHAR ch-20
ENCODING 20
SWIDTH 409 0
DWIDTH 9 0
BBX 9 22 0 -4
BITMAP
00000d
000000
000000
000000
000003
000000
180000
180008
000008
180000
18000f
180000
ff0000
ff0000
180008
180000
180000
000000
000008
000000
000000
000000
ENDCHAR
STARTCHAR ch-21
ENCODING 21
SWIDTH 409 0
DWIDTH 9 0
BBX 9 22 0 -4
BITMAP
00000d
000000
000000
000000
000003
000000
030000
060008
060008
0c0000
0c0000
180000
180000
180000
300008
300000
600000
600000
c00008
000000
000000
000000
ENDCHAR
STARTCHAR ch-22
ENCODING 22
SWIDTH 409 0
DWIDTH 9 0
BBX 9 22 0 -4
BITMAP
00000d
000000
000000
000000
000003
000000
c00000
600008
600008
300000
300006
180000
180000
180000
0c0008
0c0000
060000
060000
030000
000000
000000
000000
ENDCHAR
STARTCHAR ch-23
ENCODING 23
SWIDTH 409 0
DWIDTH 9 0
BBX 9 22 0 -4
BITMAP
00000d
000000
000000
000000
000003
000000
000000
000008
000008
080000
2a0000
1c0000
770000
1c0000
2a0008
080000
000000
000000
00000c
000000
000000
000000
ENDCHAR
STARTCHAR ch-24
ENCODING 24
SWIDTH 272 0
DWIDTH 6 0
BBX 6 22 0 -4
BITMAP
00000d
000000
000000
000000
000003
000000
000000
000008
000008
000000
700000
d80000
880000
880000
d8000c
700000
000000
000000
00000a
000000
000000
000000
ENDCHAR
STARTCHAR ch-25
ENCODING 25
SWIDTH 272 0
DWIDTH 6 0
BBX 6 22 0 -4
BITMAP
000000
000000
000000
000000
000003
000000
000000
000008
000000
000000
700000
f80006
f8000b
f80000
f80008
700000
000000
000000
000008
000000
000000
000000
ENDCHAR
STARTCHAR ch-26
ENCODING 26
SWIDTH 636 0
DWIDTH 14 0
BBX 14 22 0 -4
BITMAP
000000
000000
000000
000000
000003
000000
000000
003808
003800
006000
004000
e0c006
30800b
118000
190008
0b0000
0e0000
060000
000008
000000
000000
000000
ENDCHAR
STARTCHAR ch-27
ENCODING 27
SWIDTH 636 0
DWIDTH 14 0
BBX 14 22 0 -4
BITMAP
00000d
000000
000000
000000
000003
000000
040000
0a3808
023808
046008
024000
eac000
348000
118000
190000
0b0000
0e0000
060000
000009
000000
000000
000000
ENDCHAR
STARTCHAR ch-28
ENCODING 28
SWIDTH 636 0
DWIDTH 14 0
BBX 14 22 0 -4
BITMAP
00000d
000000
000000
000000
000003
000000
020000
063808
0a3808
1f6008
024002
e2c000
308000
118000
19000a
0b0000
0e0000
060000
000009
000000
000000
000000
ENDCHAR
STARTCHAR ch-29
ENCODING 29
SWIDTH 454 0
DWIDTH 10 0
BBX 10 22 0 -4
BITMAP
00000d
000000
000000
000000
000003
000000
000000
000008
000008
000008
00000a
770000
dc0000
880000
dc0002
770000
000000
000000
000009
000000
000000
000000
ENDCHAR
STARTCHAR ch-30
ENCODING 30
SWIDTH 636 0
DWIDTH 14 0
BBX 14 22 0 -4
BITMAP
000000
000000
000000
000000
000003
000000
000000
000008
000000
000000
78f000
cd9806
86080b
830800
cd9807
78f000
000000
000000
00000c
000000
000000
000000
ENDCHAR
STARTCHAR ch-31
ENCODING 31
SWIDTH 454 0
DWIDTH 10 0
BBX 10 22 0 -4
BITMAP
00000d
000000
000000
000000
000003
000000
000000
c00008
c00008
c00000
c00000
c00000
c00000
c00000
c0000d
ff8000
ff8000
000008
00000d
000000
000000
000000
ENDCHAR
STARTCHAR ch-32
ENCODING 32
SWIDTH 454 0
DWIDTH 10 0
BBX 10 22 0 -4
BITMAP
000000
000000
000000
000000
000003
000000
000000
018008
030000
060000
0c0000
180006
30000b
600000
c00000
ff8000
ff8000
000000
000000
000000
000000
000000
ENDCHAR
STARTCHAR ch-33
ENCODING 33
SWIDTH 454 0
DWIDTH 10 0
BBX 10 22 0 -4
BITMAP
000000
000000
000000
000000
000003
000000
000000
018008
030000
260000
1c0003
180006
38000b
640000
c40008
ff8000
ff8000
020000
020000
000000
000000
000000
ENDCHAR
STARTCHAR ch-34
ENCODING 34
SWIDTH 454 0
DWIDTH 10 0
BBX 10 22 0 -4
BITMAP
000000
000000
000000
000000
000003
000000
000000
080008
058000
070000
1c0003
720006
c2000b
720000
1c0008
070000
058000
080000
000004
000000
000000
000000
ENDCHAR
STARTCHAR ch-35
ENCODING 35
SWIDTH 181 0
DWIDTH 4 0
BBX 4 22 0 -4
BITMAP
00000d
000000
000000
000000
000003
600000
600000
600008
600008
600000
600005
600000
600000
600000
600002
600000
600000
600000
00000c
000000
000000
000000
ENDCHAR
STARTCHAR ch-36
ENCODING 36
SWIDTH 318 0
DWIDTH 7 0
BBX 7 22 0 -4
BITMAP
00000d
000000
000000
000000
000003
320000
340000
340008
380008
380000
300000
300000
300000
300000
700000
700000
b00000
b00000
000000
000000
000000
000000
ENDCHAR
STARTCHAR ch-37
ENCODING 37
SWIDTH 318 0
DWIDTH 7 0
BBX 7 22 0 -4
BITMAP
000000
000000
000000
000000
000003
cc0000
cc0002
cc0008
cc0000
cc0000
cc0008
cc0006
cc000b
cc0000
cc0000
cc0000
cc0000
cc0000
000000
000000
000000
000000
ENDCHAR
STARTCHAR ch-38
ENCODING 38
SWIDTH 500 0
DWIDTH 11 0
BBX 11 22 0 -4
BITMAP
000000
000000
000000
002000
004003
334000
33800c
338008
330000
330000
37000c
370006
3b000b
3b0000
33000c
330000
730000
730000
80000c
800000
000000
000000
ENDCHAR
STARTCHAR ch-39
ENCODING 39
SWIDTH 454 0
DWIDTH 10 0
BBX 10 22 0 -4
BITMAP
000000
000000
000000
000000
000003
000000
000003
000008
080000
1c0000
1c0003
360006
36000b
630000
630007
c18000
c18000
000000
000003
000000
000000
000000
ENDCHAR
STARTCHAR ch-40
ENCODING 40
SWIDTH 454 0
DWIDTH 10 0
BBX 10 22 0 -4
BITMAP
000000
000000
000000
000000
000003
000000
000000
000008
c18000
c18000
630008
630006
36000b
360000
1c0006
1c0000
080000
000000
000003
000000
000000
000000
ENDCHAR
STARTCHAR ch-41
ENCODING 41
SWIDTH 409 0
DWIDTH 9 0
BBX 9 22 0 -4
BITMAP
000000
000000
000000
000000
000003
000000
000000
000008
3c0000
7e0000
e70001
c30006
c3000b
c30000
c30003
c30000
c30000
000000
00000c
000000
000000
000000
ENDCHAR
STARTCHAR ch-42
ENCODING 42
SWIDTH 409 0
DWIDTH 9 0
BBX 9 22 0 -4
BITMAP
00000d
000000
000000
000000
000003
000000
000000
000008
c30008
c30000
c3000c
c30000
c30000
c30000
e70003
7e0000
3c0000
000000
000003
000000
000000
000000
ENDCHAR
STARTCHAR ch-43
ENCODING 43
SWIDTH 363 0
DWIDTH 8 0
BBX 8 22 0 -4
BITMAP
000000
000000
000000
000000
000003
060000
0e0000
0e0008
080000
180000
180003
180006
18000b
180000
180003
100000
d00000
f00000
600007
000000
000000
000000
ENDCHAR
STARTCHAR ch-44
ENCODING 44
SWIDTH 590 0
DWIDTH 13 0
BBX 13 22 0 -4
BITMAP
000000
000000
000000
000000
000003
063000
0e7006
0e7008
084000
18c000
18c008
18c006
18c00b
18c000
18c008
108000
d68000
f78000
630008
000000
000000
000000
ENDCHAR
STARTCHAR ch-45
ENCODING 45
SWIDTH 818 0
DWIDTH 18 0
BBX 18 22 0 -4
BITMAP
000000
000000
000000
000000
000003
063180
0e7386
0e7388
084200
18c600
18c608
18c606
18c60b
18c600
18c608
108400
d6b400
f7bc00
631808
000000
000000
000000
ENDCHAR
STARTCHAR ch-46
ENCODING 46
SWIDTH 363 0
DWIDTH 8 0
BBX 8 22 0 -4
BITMAP
00000d
000000
000000
000000
000003
060000
0e0006
0e0008
080008
3c0003
5a0008
5a0000
5a0000
3c0006
180008
100000
d00000
f00006
600008
000000
000000
000004
ENDCHAR
STARTCHAR ch-47
ENCODING 47
SWIDTH 636 0
DWIDTH 14 0
BBX 14 22 0 -4
BITMAP
00000d
000000
000000
000000
000003
061800
0e3806
0e3808
082008
3cf000
5b6808
5b6800
5b6800
3cf000
18600a
104000
d34000
f3c000
618008
000000
000000
000000
ENDCHAR
STARTCHAR ch-48
ENCODING 48
SWIDTH 909 0
DWIDTH 20 0
BBX 20 22 0 -4
BITMAP
000000
000000
000000
000000
000003
061860
0e38e6
0e38e8
082080
3cf3c8
5b6da8
5b6da6
5b6dab
3cf3c8
18618b
104100
d34d00
f3cf00
618608
000000
000000
000000
ENDCHAR
STARTCHAR ch-49
ENCODING 49
SWIDTH 409 0
DWIDTH 9 0
BBX 9 22 0 -4
BITMAP
000000
000000
000000
000000
000003
060000
0e0006
0e0008
080000
3c0008
5a8008
198006
1b800b
18000d
18000b
100000
d00000
f00003
600008
000000
000000
00000d
ENDCHAR
STARTCHAR ch-50
ENCODING 50
SWIDTH 409 0
DWIDTH 9 0
BBX 9 22 0 -4
BITMAP
00000d
000000
000000
000000
000003
060000
0e0006
0e0008
080008
3f0000
588008
5a8000
5b0000
3f8000
180009
100000
d00000
f00000
600008
000000
000000
000000
ENDCHAR
STARTCHAR ch-51
ENCODING 51
SWIDTH 409 0
DWIDTH 9 0
BBX 9 22 0 -4
BITMAP
00000d
000000
000000
000000
000003
060000
0e0006
0e0008
080008
3f8000
5b0008
5a8000
588000
3f0000
18000a
100000
d00000
f00000
600008
000000
000000
000000
ENDCHAR
STARTCHAR ch-52
ENCODING 52
SWIDTH 500 0
DWIDTH 11 0
BBX 11 22 0 -4
BITMAP
00000d
000000
000000
000000
000003
000000
000006
000008
0c0008
0c0000
000008
000000
000000
000000
00000a
000000
c0c000
c0c000
000008
000000
000000
000000
ENDCHAR
STARTCHAR ch-53
ENCODING 53
SWIDTH 500 0
DWIDTH 11 0
BBX 11 22 0 -4
BITMAP
00000d
000000
000000
000000
000003
000000
000000
000008
c0c008
c0c000
00000c
000000
000000
000000
000000
000000
0c0000
0c0000
000000
000000
000000
000000
ENDCHAR
STARTCHAR ch-54
ENCODING 54
SWIDTH 136 0
DWIDTH 3 0
BBX 3 22 0 -4
BITMAP
000000
000000
000000
000000
000003
000000
000000
000008
c00000
c00000
000000
000006
00000b
000000
000000
000000
c00000
c00000
000000
000000
000000
000000
ENDCHAR
STARTCHAR ch-55
ENCODING 55
SWIDTH 500 0
DWIDTH 11 0
BBX 11 22 0 -4
BITMAP
00000d
000000
000000
000000
000003
000000
000000
000008
c0c008
c0c000
000000
000000
000000
000000
000000
000000
c0c000
c0c000
000000
000000
000000
000000
ENDCHAR
STARTCHAR ch-56
ENCODING 56
SWIDTH 500 0
DWIDTH 11 0
BBX 11 22 0 -4
BITMAP
00000d
000000
000000
000000
000003
000000
000000
000008
000008
0c0000
0c0000
000000
ffc000
ffc000
000000
000000
000000
000000
000000
000000
000000
000000
ENDCHAR
STARTCHAR ch-57
ENCODING 57
SWIDTH 500 0
DWIDTH 11 0
BBX 11 22 0 -4
BITMAP
000000
000000
000000
000000
000003
000000
000000
000008
000000
000000
00c000
00c006
fc000b
fc0000
00c000
00c000
000000
000000
000000
000000
000000
000000
ENDCHAR
STARTCHAR ch-58
ENCODING 58
SWIDTH 500 0
DWIDTH 11 0
BBX 11 22 0 -4
BITMAP
000000
000000
000000
000000
000003
000000
000000
000008
c0c000
c0c000
000000
000006
ffc00b
ffc000
000000
000000
c0c000
c0c000
000000
000000
000000
000000
ENDCHAR
STARTCHAR ch-59
ENCODING 59
SWIDTH 454 0
DWIDTH 10 0
BBX 10 22 0 -4
BITMAP
000000
000000
000000
000000
000003
000000
0c0000
0c0008
000000
708000
d88000
8d8006
87000b
000000
0c0000
0c0000
000000
000000
000000
000000
000000
000000
ENDCHAR
STARTCHAR ch-60
ENCODING 60
SWIDTH 454 0
DWIDTH 10 0
BBX 10 22 0 -4
BITMAP
00000d
000000
000000
000000
000003
000000
000000
000008
000008
708000
d88000
8d8000
870000
000000
00000d
000000
000000
000000
00000c
000000
000000
000000
ENDCHAR
STARTCHAR ch-61
ENCODING 61
SWIDTH 454 0
DWIDTH 10 0
BBX 10 22 0 -4
BITMAP
000000
000000
000000
000000
000003
000000
000000
000008
000000
870000
8d8000
d88006
70800b
000000
00000d
000000
000000
000000
000000
000000
000000
000000
ENDCHAR
STARTCHAR ch-62
ENCODING 62
SWIDTH 454 0
DWIDTH 10 0
BBX 10 22 0 -4
BITMAP
000000
000000
000000
000000
000003
000000
000000
000008
000000
730000
d98000
888006
cd800b
670000
000008
000000
000000
000000
000000
000000
000000
000000
ENDCHAR
STARTCHAR ch-63
ENCODING 63
SWIDTH 545 0
DWIDTH 12 0
BBX 12 22 0 -4
BITMAP
000000
000000
000000
000000
000003
000000
000000
300008
480000
480000
840000
840006
02100b
021000
012008
012000
00c000
000000
000000
000000
000000
000000
ENDCHAR
STARTCHAR ch-64
ENCODING 64
SWIDTH 181 0
DWIDTH 4 0
BBX 4 22 0 -4
BITMAP
00000d
000000
000000
000000
000003
400000
200000
200008
300008
300000
300008
200000
600000
400000
c00004
c00000
c00000
400000
400001
200000
000000
000000
ENDCHAR
STARTCHAR ch-65
ENCODING 65
SWIDTH 454 0
DWIDTH 10 0
BBX 10 22 0 -4
BITMAP
00000d
000000
000000
000000
000003
000000
020000
020008
040008
748000
d88000
8d8000
970000
100000
200000
200000
000000
000000
000000
000000
000000
000000
ENDCHAR
STARTCHAR ch-66
ENCODING 66
SWIDTH 454 0
DWIDTH 10 0
BBX 10 22 0 -4
BITMAP
00000d
000000
000000
000000
000003
000000
000000
000008
ff8008
ff8000
000004
708000
d88000
8d8000
87000d
000000
000000
000000
000000
000000
000000
000000
ENDCHAR
STARTCHAR ch-67
ENCODING 67
SWIDTH 454 0
DWIDTH 10 0
BBX 10 22 0 -4
BITMAP
00000d
000000
000000
000000
000003
000000
000000
000008
708008
d88000
8d800f
870000
000000
ff8000
ff8000
000000
000000
000000
000007
000000
000000
000000
ENDCHAR
STARTCHAR ch-68
ENCODING 68
SWIDTH 454 0
DWIDTH 10 0
BBX 10 22 0 -4
BITMAP
00000d
000000
000000
000000
000003
010000
010000
020008
728008
d48000
8d8000
8f0000
080000
ff8000
ff8007
200000
200000
400000
40000f
000000
000000
000000
ENDCHAR
STARTCHAR ch-69
ENCODING 69
SWIDTH 454 0
DWIDTH 10 0
BBX 10 22 0 -4
BITMAP
00000d
000000
000000
000000
000003
000000
000001
708008
d88008
8d8000
870002
000000
ff8000
ff8000
00000f
ff8000
ff8000
000000
00000f
000000
000000
000000
ENDCHAR
STARTCHAR ch-70
ENCODING 70
SWIDTH 454 0
DWIDTH 10 0
BBX 10 22 0 -4
BITMAP
000000
000000
000000
000000
000003
000000
000000
708008
d88000
8d8000
870008
020006
ff800b
ff8000
080000
ff8000
ff8000
100000
200000
200000
000000
000000
ENDCHAR
STARTCHAR ch-71
ENCODING 71
SWIDTH 454 0
DWIDTH 10 0
BBX 10 22 0 -4
BITMAP
000000
000000
000000
000000
000003
010000
010000
728008
da8000
8d8000
8f0008
080006
ff800b
ff8000
200002
ff8000
ff8000
400000
800008
800000
000000
000000
ENDCHAR
STARTCHAR ch-72
ENCODING 72
SWIDTH 454 0
DWIDTH 10 0
BBX 10 22 0 -4
BITMAP
000000
000000
000000
000000
000003
000000
000001
000008
708000
d88000
8d800a
870006
70800b
d88000
8d8008
870000
000000
000000
000000
000000
000000
000000
ENDCHAR
STARTCHAR ch-73
ENCODING 73
SWIDTH 454 0
DWIDTH 10 0
BBX 10 22 0 -4
BITMAP
000000
000000
000000
000000
000003
000000
010000
010008
728000
da8000
8d8000
870006
78800b
d88000
9d8007
970000
200000
200000
40000d
400000
000000
000000
ENDCHAR
STARTCHAR ch-74
ENCODING 74
SWIDTH 454 0
DWIDTH 10 0
BBX 10 22 0 -4
BITMAP
000000
000000
000000
000000
000003
000000
708000
d88008
8d8000
870000
708002
d88006
8d800b
870000
000007
ff8000
ff8000
000000
00000d
000000
000000
000000
ENDCHAR
STARTCHAR ch-75
ENCODING 75
SWIDTH 454 0
DWIDTH 10 0
BBX 10 22 0 -4
BITMAP
000000
000000
000000
000000
000003
000000
708000
d88008
8d8000
870000
70800d
d88006
8d800b
870000
708008
d88000
8d8000
870000
000000
000000
000000
000000
ENDCHAR
STARTCHAR ch-76
ENCODING 76
SWIDTH 454 0
DWIDTH 10 0
BBX 10 22 0 -4
BITMAP
000000
000000
000000
000000
000003
000000
730000
d98008
888000
cd8000
67000d
000006
ff800b
ff8000
000008
ff8000
ff8000
000000
000000
000000
000000
000000
ENDCHAR
STARTCHAR ch-77
ENCODING 77
SWIDTH 590 0
DWIDTH 13 0
BBX 13 22 0 -4
BITMAP
00000d
000000
000000
000000
000003
000000
000000
801008
c03008
70e000
3fc008
0f0000
000000
0f0000
3fc000
70e000
c03000
801000
000000
000000
000000
000000
ENDCHAR
STARTCHAR ch-78
ENCODING 78
SWIDTH 500 0
DWIDTH 11 0
BBX 11 22 0 -4
BITMAP
00000d
000000
000000
000000
000003
000000
000000
000008
0c0008
1e0000
f3c000
f3c000
000000
f3c000
f3c00f
1e0000
0c0000
000000
00000f
000000
000000
000000
ENDCHAR
STARTCHAR ch-79
ENCODING 79
SWIDTH 500 0
DWIDTH 11 0
BBX 11 22 0 -4
BITMAP
000000
000000
000000
000000
000003
000000
000000
000008
0c0000
1e0000
f3c00c
f3c006
00000b
ffc000
ffc003
000000
000000
000000
000003
000000
000000
000000
ENDCHAR
STARTCHAR ch-80
ENCODING 80
SWIDTH 500 0
DWIDTH 11 0
BBX 11 22 0 -4
BITMAP
00000d
000000
000000
000000
000003
000000
000000
0c0008
0c0008
000000
ffc00c
ffc000
000000
ffc000
ffc003
000000
000000
000000
00000f
000000
000000
000000
ENDCHAR
STARTCHAR ch-81
ENCODING 81
SWIDTH 500 0
DWIDTH 11 0
BBX 11 22 0 -4
BITMAP
000000
000000
000000
000000
000003
000000
000000
0c0008
0c0000
000000
ffc00c
ffc006
00000b
ffc000
ffc00f
000000
0c0000
0c0000
00000f
000000
000000
000000
ENDCHAR
STARTCHAR ch-82
ENCODING 82
SWIDTH 500 0
DWIDTH 11 0
BBX 11 22 0 -4
BITMAP
00000d
000000
000000
000000
000003
000000
000000
c00008
c00008
000000
ffc00c
ffc000
000000
ffc000
ffc00f
000000
00c000
00c000
00000f
000000
000000
000000
ENDCHAR
STARTCHAR ch-83
ENCODING 83
SWIDTH 500 0
DWIDTH 11 0
BBX 11 22 0 -4
BITMAP
00000d
000000
000000
000000
000003
000000
000000
00c008
00c008
000000
ffc000
ffc000
000000
ffc000
ffc00f
000000
c00000
c00000
00000f
000000
000000
000000
ENDCHAR
STARTCHAR ch-84
ENCODING 84
SWIDTH 636 0
DWIDTH 14 0
BBX 14 22 0 -4
BITMAP
00000d
000000
000000
000000
000003
000000
000000
000008
000008
000000
dff800
dff800
000000
dff800
dff80f
000000
000000
000000
00000f
000000
000000
000000
ENDCHAR
STARTCHAR ch-85
ENCODING 85
SWIDTH 636 0
DWIDTH 14 0
BBX 14 22 0 -4
BITMAP
000000
000000
000000
000000
000003
000000
000000
000008
000000
000000
ffd800
ffd806
00000b
ffd808
ffd80f
000000
000000
000008
00000f
000000
000000
000000
ENDCHAR
STARTCHAR ch-86
ENCODING 86
SWIDTH 500 0
DWIDTH 11 0
BBX 11 22 0 -4
BITMAP
00000d
000000
000000
000000
000003
000000
000000
000008
000008
000000
ffc000
ffc000
120000
ffc008
ffc00f
000000
000000
000008
00000f
000000
000000
000000
ENDCHAR
STARTCHAR ch-87
ENCODING 87
SWIDTH 500 0
DWIDTH 11 0
BBX 11 22 0 -4
BITMAP
000000
000000
000000
000000
000003
000000
000000
3f0008
408000
000000
ffc000
ffc006
00000b
ffc000
ffc00f
000000
000000
000000
00000f
000000
000000
000000
ENDCHAR
STARTCHAR ch-88
ENCODING 88
SWIDTH 500 0
DWIDTH 11 0
BBX 11 22 0 -4
BITMAP
000000
000000
000000
000000
000003
0c0000
120000
120008
0c0000
000000
ffc000
ffc006
00000b
ffc000
ffc00f
000000
000000
000000
00000f
000000
000000
000000
ENDCHAR
STARTCHAR ch-89
ENCODING 89
SWIDTH 500 0
DWIDTH 11 0
BBX 11 22 0 -4
BITMAP
00000d
000000
000000
000000
000003
000000
04000c
0a0008
110008
000000
ffc00c
ffc000
000000
ffc000
ffc00f
000000
000000
000000
00000f
000000
000000
000000
ENDCHAR
STARTCHAR ch-90
ENCODING 90
SWIDTH 500 0
DWIDTH 11 0
BBX 11 22 0 -4
BITMAP
00000d
000000
000000
000000
000003
000000
110000
0a0008
040008
000000
ffc001
ffc000
000000
ffc000
ffc00f
000000
000000
000000
00000f
000000
000000
000000
ENDCHAR
STARTCHAR ch-91
ENCODING 91
SWIDTH 500 0
DWIDTH 11 0
BBX 11 22 0 -4
BITMAP
00000d
000000
000000
000000
040003
1f0000
0e0000
0e0008
1b0008
000000
ffc004
ffc000
000000
ffc000
ffc00f
000000
000000
000000
00000f
000000
000000
000000
ENDCHAR
STARTCHAR ch-92
ENCODING 92
SWIDTH 500 0
DWIDTH 11 0
BBX 11 22 0 -4
BITMAP
000000
000000
000000
000000
000003
040000
0a000f
110008
1f0000
000000
ffc00b
ffc006
00000b
ffc000
ffc00f
000000
000000
000000
00000f
000000
000000
000000
ENDCHAR
STARTCHAR ch-93
ENCODING 93
SWIDTH 500 0
DWIDTH 11 0
BBX 11 22 0 -4
BITMAP
000000
000000
000000
000000
204003
208000
6ec004
ae8008
6e8000
000000
ffc00f
ffc006
00000b
ffc000
ffc00f
000000
000000
000000
00000f
000000
000000
000000
ENDCHAR
STARTCHAR ch-94
ENCODING 94
SWIDTH 500 0
DWIDTH 11 0
BBX 11 22 0 -4
BITMAP
000000
000000
000000
000000
000003
000000
1f0000
150008
150000
000000
ffc00e
ffc006
00000b
ffc000
ffc00f
000000
000000
000000
00000f
000000
000000
000000
ENDCHAR
STARTCHAR ch-95
ENCODING 95
SWIDTH 500 0
DWIDTH 11 0
BBX 11 22 0 -4
BITMAP
00000d
000000
000000
000000
0e0003
020000
060000
000008
040008
000000
ffc005
ffc000
000000
ffc000
ffc00f
000000
000000
000000
00000f
000000
000000
000000
ENDCHAR
STARTCHAR ch-96
ENCODING 96
SWIDTH 500 0
DWIDTH 11 0
BBX 11 22 0 -4
BITMAP
00000d
000000
000000
000000
000003
000000
010002
010008
020008
020000
ffc004
ffc000
080000
ffc000
ffc00f
100000
200000
200000
00000f
000000
000000
000000
ENDCHAR
STARTCHAR ch-97
ENCODING 97
SWIDTH 500 0
DWIDTH 11 0
BBX 11 22 0 -4
BITMAP
00000d
000000
000000
000000
000003
000000
000000
000008
ffc008
ffc000
000002
ffc000
ffc000
000000
ffc00f
ffc000
000000
000000
00000f
000000
000000
000000
ENDCHAR
STARTCHAR ch-98
ENCODING 98
SWIDTH 500 0
DWIDTH 11 0
BBX 11 22 0 -4
BITMAP
00000d
000000
000000
000000
008003
008000
010000
010008
ffc008
ffc000
04000f
ffc000
ffc000
080000
ffc00f
ffc000
200000
200000
40000f
400000
000000
000000
ENDCHAR
STARTCHAR ch-99
ENCODING 99
SWIDTH 500 0
DWIDTH 11 0
BBX 11 22 0 -4
BITMAP
00000d
000000
000000
000000
000003
000000
000000
ffc008
ffc008
000000
ffc00f
ffc000
000000
ffc000
ffc00f
000000
ffc000
ffc000
00000f
000000
000000
000000
ENDCHAR
STARTCHAR ch-100
ENCODING 100
SWIDTH 454 0
DWIDTH 10 0
BBX 10 22 0 -4
BITMAP
000000
000000
000000
000000
000003
000000
018000
070008
1c0000
700000
c0000f
c00006
70000b
1c0000
c7000f
718000
1c0000
070000
01800f
000000
000000
000000
ENDCHAR
STARTCHAR ch-101
ENCODING 101
SWIDTH 454 0
DWIDTH 10 0
BBX 10 22 0 -4
BITMAP
000000
000000
000000
000000
000003
000000
c00000
700008
1c0000
070000
01800c
018006
07000b
1c0000
718000
c70000
1c0000
700000
c00007
000000
000000
000000
ENDCHAR
STARTCHAR ch-102
ENCODING 102
SWIDTH 454 0
DWIDTH 10 0
BBX 10 22 0 -4
BITMAP
00000d
000000
000000
000000
000003
018000
070000
1c0008
700008
c00000
c0000c
700000
1c0000
070000
018001
000000
ff8000
ff8000
000001
ff8000
ff8000
000000
ENDCHAR
STARTCHAR ch-103
ENCODING 103
SWIDTH 454 0
DWIDTH 10 0
BBX 10 22 0 -4
BITMAP
00000d
000000
000000
000000
000003
c00000
700001
1c0008
070008
018000
018000
070000
1c0000
700000
c00000
000000
ff8000
ff8000
000001
ff8000
ff8000
000000
ENDCHAR
STARTCHAR ch-104
ENCODING 104
SWIDTH 454 0
DWIDTH 10 0
BBX 10 22 0 -4
BITMAP
00000d
000000
000000
000000
000003
018000
070000
1c0008
700008
c00000
c00007
700000
1c0000
070000
038007
020000
ff8000
ff8000
080000
ff8000
ff8000
100000
ENDCHAR
STARTCHAR ch-105
ENCODING 105
SWIDTH 454 0
DWIDTH 10 0
BBX 10 22 0 -4
BITMAP
00000d
000000
000000
000000
000003
c00000
700001
1c0008
070008
018000
018000
070000
1c0000
700000
c20000
020000
ff8000
ff8000
080003
ff8000
ff8000
100000
ENDCHAR
STARTCHAR ch-106
ENCODING 106
SWIDTH 681 0
DWIDTH 15 0
BBX 15 22 0 -4
BITMAP
00000d
000000
000000
000000
000003
000000
000000
018c08
073808
1ce000
738007
c60000
c60000
738000
1ce007
073800
018c00
000000
000002
000000
000000
000000
ENDCHAR
STARTCHAR ch-107
ENCODING 107
SWIDTH 681 0
DWIDTH 15 0
BBX 15 22 0 -4
BITMAP
00000d
000000
000000
000000
000003
000000
000000
c60008
738008
1ce00c
073807
018c00
018c00
073800
1ce006
738000
c60000
000000
00000c
000000
000000
00000c
ENDCHAR
STARTCHAR ch-108
ENCODING 108
SWIDTH 409 0
DWIDTH 9 0
BBX 9 22 0 -4
BITMAP
00000d
000000
000000
000000
000003
360000
1c0000
1c0008
360008
360000
630003
630000
630000
630008
360001
360000
1c0000
1c0008
36000c
000000
000000
000000
ENDCHAR
STARTCHAR ch-109
ENCODING 109
SWIDTH 590 0
DWIDTH 13 0
BBX 13 22 0 -4
BITMAP
00000d
000000
000000
000000
004003
004000
008006
809008
c13008
71e000
3fc006
0f0000
040000
0f0000
3fc003
78e000
d03000
901000
200006
200000
000000
000000
ENDCHAR
STARTCHAR ch-110
ENCODING 110
SWIDTH 454 0
DWIDTH 10 0
BBX 10 22 0 -4
BITMAP
000000
000000
000000
000000
010003
010000
020000
038008
070000
1c0000
780001
c80006
d0000b
700000
3c000f
270000
418000
400000
00000f
000000
000000
000000
ENDCHAR
STARTCHAR ch-111
ENCODING 111
SWIDTH 454 0
DWIDTH 10 0
BBX 10 22 0 -4
BITMAP
00000d
000000
000000
000000
000003
010000
010001
c20008
720008
1c0000
070007
098000
098000
170000
1c0008
300000
e00000
400000
00000c
000000
000000
000000
ENDCHAR
STARTCHAR ch-112
ENCODING 112
SWIDTH 454 0
DWIDTH 10 0
BBX 10 22 0 -4
BITMAP
000000
000000
000000
010000
010003
020000
038001
070008
1c0000
780000
c80002
d00006
70000b
3c0000
e70009
718000
5c0000
870000
81800c
000000
000000
000000
ENDCHAR
STARTCHAR ch-113
ENCODING 113
SWIDTH 454 0
DWIDTH 10 0
BBX 10 22 0 -4
BITMAP
00000d
000000
000000
000000
010003
010000
c20002
720008
1c0008
070000
09800c
098000
170000
1c0000
718000
e70000
5c0000
700000
c00007
800000
000000
000000
ENDCHAR
STARTCHAR ch-114
ENCODING 114
SWIDTH 454 0
DWIDTH 10 0
BBX 10 22 0 -4
BITMAP
00000d
000000
000000
000000
018003
070000
1c0001
700008
c00008
c00000
70000c
1c0000
070000
018000
700009
d88000
8d8000
870000
000001
000000
000000
000000
ENDCHAR
STARTCHAR ch-115
ENCODING 115
SWIDTH 454 0
DWIDTH 10 0
BBX 10 22 0 -4
BITMAP
000000
000000
000000
000000
c00003
700000
1c0007
070008
018000
018000
070000
1c0006
70000b
c00000
70800c
d88000
8d8000
870000
000000
000000
000000
000000
ENDCHAR
STARTCHAR ch-116
ENCODING 116
SWIDTH 454 0
DWIDTH 10 0
BBX 10 22 0 -4
BITMAP
000000
004000
004000
008000
018003
070000
1d0000
720008
c20000
c40000
740001
1c0006
0f000b
118000
70000c
f88000
ad8000
c70000
400000
800000
800000
000000
ENDCHAR
STARTCHAR ch-117
ENCODING 117
SWIDTH 454 0
DWIDTH 10 0
BBX 10 22 0 -4
BITMAP
000000
004000
004000
008000
c08003
710000
1d0007
070008
038000
058000
070002
1c0006
78000b
d00000
70800c
f88000
ad8000
c70000
400000
800000
800000
000000
ENDCHAR
STARTCHAR ch-118
ENCODING 118
SWIDTH 454 0
DWIDTH 10 0
BBX 10 22 0 -4
BITMAP
000000
000000
000000
018000
070003
1c0000
700001
c00008
c00000
700000
1c0003
c70006
71800b
1c0000
07000c
018000
018000
070000
1c0000
700000
c00000
000000
ENDCHAR
STARTCHAR ch-119
ENCODING 119
SWIDTH 454 0
DWIDTH 10 0
BBX 10 22 0 -4
BITMAP
000000
000000
000000
c00000
700003
1c0000
07000c
018008
018000
070000
1c0000
718006
c7000b
1c0000
700007
c00000
c00000
700000
1c0007
070000
018000
000000
ENDCHAR
STARTCHAR ch-120
ENCODING 120
SWIDTH 454 0
DWIDTH 10 0
BBX 10 22 0 -4
BITMAP
000000
000000
080000
098000
0f0003
1c0000
78000c
c80008
c80000
780000
1c0001
cf0006
79800b
1c0000
0f0001
098000
098000
0f0000
1c0000
780000
c80000
080000
ENDCHAR
STARTCHAR ch-121
ENCODING 121
SWIDTH 454 0
DWIDTH 10 0
BBX 10 22 0 -4
BITMAP
000000
000000
040008
c40000
740003
1c0000
07000c
058008
058000
070000
1c0008
758006
c7000b
1c0000
74000f
c40000
c40000
740000
1c000f
070000
058000
040000
ENDCHAR
STARTCHAR ch-122
ENCODING 122
SWIDTH 500 0
DWIDTH 11 0
BBX 11 22 0 -4
BITMAP
000000
000000
000004
000000
000003
000000
00000c
00c008
018000
030000
0e0005
780006
c0000b
780000
0e0005
030000
018000
00c000
000004
000000
000000
000000
ENDCHAR
STARTCHAR ch-123
ENCODING 123
SWIDTH 500 0
DWIDTH 11 0
BBX 11 22 0 -4
BITMAP
000000
000000
000000
000000
000003
000000
000000
c00008
600000
300000
1c0001
078006
00c00b
078000
1c0008
300000
600000
c00000
00000e
000000
000000
000000
ENDCHAR
STARTCHAR ch-124
ENCODING 124
SWIDTH 500 0
DWIDTH 11 0
BBX 11 22 0 -4
BITMAP
000000
000000
000000
000000
000003
000000
000000
00c008
018000
030000
0e0000
780006
c0000b
780000
0e0007
e30000
398000
0ec000
03000c
018000
00c000
000000
ENDCHAR
STARTCHAR ch-125
ENCODING 125
SWIDTH 500 0
DWIDTH 11 0
BBX 11 22 0 -4
BITMAP
00000d
000000
000000
000000
000003
000000
000000
c00008
600008
300000
1c0001
078000
00c000
078000
1c0008
31c000
670000
dc0000
30000e
600000
c00000
000000
ENDCHAR
STARTCHAR ch-126
ENCODING 126
SWIDTH 500 0
DWIDTH 11 0
BBX 11 22 0 -4
BITMAP
00000d
000000
000000
000000
000003
00c000
018000
030008
0e0008
780000
c00000
780000
0e0000
030000
018007
00c000
384000
6c4000
46c00c
438000
000000
000000
ENDCHAR
STARTCHAR ch-127
ENCODING 127
SWIDTH 500 0
DWIDTH 11 0
BBX 11 22 0 -4
BITMAP
00000d
000000
000000
000000
000003
c00000
600000
300008
1c0004
078000
00c00e
078000
1c0000
300000
600008
c00000
384000
6c4000
46c001
438000
000000
000000
ENDCHAR
ENDFONT
